<mxfile host="app.diagrams.net" modified="2023-09-15T03:21:40.575Z" agent="Mozilla/5.0 (Windows NT 10.0; Win64; x64) AppleWebKit/537.36 (KHTML, like Gecko) Chrome/116.0.0.0 Safari/537.36" etag="GjztXq0nZPccw-6u4x6B" version="21.7.2" type="github">
  <diagram name="PÃ¡gina-1" id="aRoDTyTmED98InQfg9mz">
    <mxGraphModel dx="1354" dy="578" grid="1" gridSize="10" guides="1" tooltips="1" connect="1" arrows="1" fold="1" page="1" pageScale="1" pageWidth="827" pageHeight="1169" math="0" shadow="0">
      <root>
        <mxCell id="0" />
        <mxCell id="1" parent="0" />
        <mxCell id="GrXOFnssaMWVDJCj0Y9l-27" style="edgeStyle=orthogonalEdgeStyle;rounded=0;orthogonalLoop=1;jettySize=auto;html=1;flowAnimation=1;" edge="1" parent="1" source="GrXOFnssaMWVDJCj0Y9l-1" target="GrXOFnssaMWVDJCj0Y9l-7">
          <mxGeometry relative="1" as="geometry" />
        </mxCell>
        <mxCell id="GrXOFnssaMWVDJCj0Y9l-1" value="Users" style="sketch=0;outlineConnect=0;fontColor=#232F3E;gradientColor=none;strokeColor=#232F3E;fillColor=#ffffff;dashed=0;verticalLabelPosition=bottom;verticalAlign=top;align=center;html=1;fontSize=12;fontStyle=0;aspect=fixed;shape=mxgraph.aws4.resourceIcon;resIcon=mxgraph.aws4.users;" vertex="1" parent="1">
          <mxGeometry x="18.5" y="450" width="60" height="60" as="geometry" />
        </mxCell>
        <mxCell id="GrXOFnssaMWVDJCj0Y9l-4" value="VPC" style="points=[[0,0],[0.25,0],[0.5,0],[0.75,0],[1,0],[1,0.25],[1,0.5],[1,0.75],[1,1],[0.75,1],[0.5,1],[0.25,1],[0,1],[0,0.75],[0,0.5],[0,0.25]];outlineConnect=0;gradientColor=none;html=1;whiteSpace=wrap;fontSize=12;fontStyle=0;container=1;pointerEvents=0;collapsible=0;recursiveResize=0;shape=mxgraph.aws4.group;grIcon=mxgraph.aws4.group_vpc;strokeColor=#248814;fillColor=none;verticalAlign=top;align=left;spacingLeft=30;fontColor=#AAB7B8;dashed=0;" vertex="1" parent="1">
          <mxGeometry x="420" y="50" width="390" height="500" as="geometry" />
        </mxCell>
        <mxCell id="GrXOFnssaMWVDJCj0Y9l-6" value="&amp;nbsp;Cloud" style="points=[[0,0],[0.25,0],[0.5,0],[0.75,0],[1,0],[1,0.25],[1,0.5],[1,0.75],[1,1],[0.75,1],[0.5,1],[0.25,1],[0,1],[0,0.75],[0,0.5],[0,0.25]];outlineConnect=0;gradientColor=none;html=1;whiteSpace=wrap;fontSize=12;fontStyle=0;container=1;pointerEvents=0;collapsible=0;recursiveResize=0;shape=mxgraph.aws4.group;grIcon=mxgraph.aws4.group_aws_cloud;strokeColor=#232F3E;fillColor=none;verticalAlign=top;align=left;spacingLeft=30;fontColor=#232F3E;dashed=0;" vertex="1" parent="1">
          <mxGeometry x="170" y="40" width="650" height="520" as="geometry" />
        </mxCell>
        <mxCell id="GrXOFnssaMWVDJCj0Y9l-10" value="Application&lt;br&gt;Load Balancer" style="text;html=1;strokeColor=none;fillColor=none;align=center;verticalAlign=middle;whiteSpace=wrap;rounded=0;" vertex="1" parent="GrXOFnssaMWVDJCj0Y9l-6">
          <mxGeometry x="122.94999999999999" y="310.09999999999997" width="100" height="30" as="geometry" />
        </mxCell>
        <mxCell id="GrXOFnssaMWVDJCj0Y9l-11" value="API Gateway" style="text;html=1;strokeColor=none;fillColor=none;align=center;verticalAlign=middle;whiteSpace=wrap;rounded=0;" vertex="1" parent="GrXOFnssaMWVDJCj0Y9l-6">
          <mxGeometry y="300" width="100" height="30" as="geometry" />
        </mxCell>
        <mxCell id="GrXOFnssaMWVDJCj0Y9l-35" style="edgeStyle=orthogonalEdgeStyle;rounded=0;orthogonalLoop=1;jettySize=auto;html=1;" edge="1" parent="GrXOFnssaMWVDJCj0Y9l-6" source="GrXOFnssaMWVDJCj0Y9l-12" target="GrXOFnssaMWVDJCj0Y9l-13">
          <mxGeometry relative="1" as="geometry" />
        </mxCell>
        <mxCell id="GrXOFnssaMWVDJCj0Y9l-12" value="" style="outlineConnect=0;dashed=0;verticalLabelPosition=bottom;verticalAlign=top;align=center;html=1;shape=mxgraph.aws3.rds_db_instance;fillColor=#2E73B8;gradientColor=none;" vertex="1" parent="GrXOFnssaMWVDJCj0Y9l-6">
          <mxGeometry x="565.25" y="112.1" width="49.5" height="66" as="geometry" />
        </mxCell>
        <mxCell id="GrXOFnssaMWVDJCj0Y9l-36" style="edgeStyle=orthogonalEdgeStyle;rounded=0;orthogonalLoop=1;jettySize=auto;html=1;" edge="1" parent="GrXOFnssaMWVDJCj0Y9l-6" source="GrXOFnssaMWVDJCj0Y9l-13">
          <mxGeometry relative="1" as="geometry">
            <mxPoint x="590" y="180" as="targetPoint" />
          </mxGeometry>
        </mxCell>
        <mxCell id="GrXOFnssaMWVDJCj0Y9l-13" value="" style="outlineConnect=0;dashed=0;verticalLabelPosition=bottom;verticalAlign=top;align=center;html=1;shape=mxgraph.aws3.rds_db_instance_read_replica;fillColor=#2E73B8;gradientColor=none;" vertex="1" parent="GrXOFnssaMWVDJCj0Y9l-6">
          <mxGeometry x="565.25" y="292.1" width="49.5" height="66" as="geometry" />
        </mxCell>
        <mxCell id="GrXOFnssaMWVDJCj0Y9l-15" value="Read Replica" style="text;html=1;strokeColor=none;fillColor=none;align=center;verticalAlign=middle;whiteSpace=wrap;rounded=0;" vertex="1" parent="GrXOFnssaMWVDJCj0Y9l-6">
          <mxGeometry x="540" y="362.1" width="100" height="30" as="geometry" />
        </mxCell>
        <mxCell id="GrXOFnssaMWVDJCj0Y9l-16" value="Banco de Dados" style="text;html=1;strokeColor=none;fillColor=none;align=center;verticalAlign=middle;whiteSpace=wrap;rounded=0;" vertex="1" parent="GrXOFnssaMWVDJCj0Y9l-6">
          <mxGeometry x="540" y="79.99999999999997" width="100" height="30" as="geometry" />
        </mxCell>
        <mxCell id="GrXOFnssaMWVDJCj0Y9l-29" style="edgeStyle=orthogonalEdgeStyle;rounded=0;orthogonalLoop=1;jettySize=auto;html=1;flowAnimation=1;" edge="1" parent="GrXOFnssaMWVDJCj0Y9l-6" source="GrXOFnssaMWVDJCj0Y9l-17" target="GrXOFnssaMWVDJCj0Y9l-18">
          <mxGeometry relative="1" as="geometry" />
        </mxCell>
        <mxCell id="GrXOFnssaMWVDJCj0Y9l-17" value="" style="sketch=0;points=[[0,0,0],[0.25,0,0],[0.5,0,0],[0.75,0,0],[1,0,0],[0,1,0],[0.25,1,0],[0.5,1,0],[0.75,1,0],[1,1,0],[0,0.25,0],[0,0.5,0],[0,0.75,0],[1,0.25,0],[1,0.5,0],[1,0.75,0]];outlineConnect=0;fontColor=#232F3E;gradientColor=#FF4F8B;gradientDirection=north;fillColor=#BC1356;strokeColor=#ffffff;dashed=0;verticalLabelPosition=bottom;verticalAlign=top;align=center;html=1;fontSize=12;fontStyle=0;aspect=fixed;shape=mxgraph.aws4.resourceIcon;resIcon=mxgraph.aws4.api_gateway;" vertex="1" parent="GrXOFnssaMWVDJCj0Y9l-6">
          <mxGeometry x="17.05" y="226.20000000000002" width="65.9" height="65.9" as="geometry" />
        </mxCell>
        <mxCell id="GrXOFnssaMWVDJCj0Y9l-30" style="edgeStyle=orthogonalEdgeStyle;rounded=0;orthogonalLoop=1;jettySize=auto;html=1;entryX=0;entryY=0.5;entryDx=0;entryDy=0;entryPerimeter=0;flowAnimation=1;" edge="1" parent="GrXOFnssaMWVDJCj0Y9l-6" source="GrXOFnssaMWVDJCj0Y9l-18" target="GrXOFnssaMWVDJCj0Y9l-19">
          <mxGeometry relative="1" as="geometry">
            <Array as="points">
              <mxPoint x="260" y="259" />
              <mxPoint x="260" y="115" />
            </Array>
          </mxGeometry>
        </mxCell>
        <mxCell id="GrXOFnssaMWVDJCj0Y9l-31" style="edgeStyle=orthogonalEdgeStyle;rounded=0;orthogonalLoop=1;jettySize=auto;html=1;entryX=0;entryY=0.5;entryDx=0;entryDy=0;entryPerimeter=0;flowAnimation=1;" edge="1" parent="GrXOFnssaMWVDJCj0Y9l-6" source="GrXOFnssaMWVDJCj0Y9l-18" target="GrXOFnssaMWVDJCj0Y9l-20">
          <mxGeometry relative="1" as="geometry">
            <Array as="points">
              <mxPoint x="260" y="259" />
              <mxPoint x="260" y="405" />
            </Array>
          </mxGeometry>
        </mxCell>
        <mxCell id="GrXOFnssaMWVDJCj0Y9l-32" style="edgeStyle=orthogonalEdgeStyle;rounded=0;orthogonalLoop=1;jettySize=auto;html=1;flowAnimation=1;" edge="1" parent="GrXOFnssaMWVDJCj0Y9l-6" source="GrXOFnssaMWVDJCj0Y9l-18" target="GrXOFnssaMWVDJCj0Y9l-21">
          <mxGeometry relative="1" as="geometry" />
        </mxCell>
        <mxCell id="GrXOFnssaMWVDJCj0Y9l-34" style="edgeStyle=orthogonalEdgeStyle;rounded=0;orthogonalLoop=1;jettySize=auto;html=1;flowAnimation=1;" edge="1" parent="GrXOFnssaMWVDJCj0Y9l-6" source="GrXOFnssaMWVDJCj0Y9l-18" target="GrXOFnssaMWVDJCj0Y9l-22">
          <mxGeometry relative="1" as="geometry" />
        </mxCell>
        <mxCell id="GrXOFnssaMWVDJCj0Y9l-18" value="" style="outlineConnect=0;dashed=0;verticalLabelPosition=bottom;verticalAlign=top;align=center;html=1;shape=mxgraph.aws3.application_load_balancer;fillColor=#F58534;gradientColor=none;" vertex="1" parent="GrXOFnssaMWVDJCj0Y9l-6">
          <mxGeometry x="142.17" y="224.15" width="61.55" height="70" as="geometry" />
        </mxCell>
        <mxCell id="GrXOFnssaMWVDJCj0Y9l-43" style="edgeStyle=orthogonalEdgeStyle;rounded=0;orthogonalLoop=1;jettySize=auto;html=1;entryX=0.5;entryY=0;entryDx=0;entryDy=0;flowAnimation=1;" edge="1" parent="GrXOFnssaMWVDJCj0Y9l-6" source="GrXOFnssaMWVDJCj0Y9l-19" target="GrXOFnssaMWVDJCj0Y9l-41">
          <mxGeometry relative="1" as="geometry">
            <Array as="points">
              <mxPoint x="325" y="40" />
              <mxPoint x="590" y="40" />
            </Array>
          </mxGeometry>
        </mxCell>
        <mxCell id="GrXOFnssaMWVDJCj0Y9l-19" value="" style="sketch=0;points=[[0,0,0],[0.25,0,0],[0.5,0,0],[0.75,0,0],[1,0,0],[0,1,0],[0.25,1,0],[0.5,1,0],[0.75,1,0],[1,1,0],[0,0.25,0],[0,0.5,0],[0,0.75,0],[1,0.25,0],[1,0.5,0],[1,0.75,0]];outlineConnect=0;fontColor=#232F3E;gradientColor=#F78E04;gradientDirection=north;fillColor=#D05C17;strokeColor=#ffffff;dashed=0;verticalLabelPosition=bottom;verticalAlign=top;align=center;html=1;fontSize=12;fontStyle=0;aspect=fixed;shape=mxgraph.aws4.resourceIcon;resIcon=mxgraph.aws4.ec2;" vertex="1" parent="GrXOFnssaMWVDJCj0Y9l-6">
          <mxGeometry x="290" y="80" width="70" height="70" as="geometry" />
        </mxCell>
        <mxCell id="GrXOFnssaMWVDJCj0Y9l-45" style="edgeStyle=orthogonalEdgeStyle;rounded=0;orthogonalLoop=1;jettySize=auto;html=1;entryX=0.5;entryY=1;entryDx=0;entryDy=0;flowAnimation=1;" edge="1" parent="GrXOFnssaMWVDJCj0Y9l-6" source="GrXOFnssaMWVDJCj0Y9l-20" target="GrXOFnssaMWVDJCj0Y9l-41">
          <mxGeometry relative="1" as="geometry">
            <Array as="points">
              <mxPoint x="325" y="480" />
              <mxPoint x="590" y="480" />
            </Array>
          </mxGeometry>
        </mxCell>
        <mxCell id="GrXOFnssaMWVDJCj0Y9l-20" value="" style="sketch=0;points=[[0,0,0],[0.25,0,0],[0.5,0,0],[0.75,0,0],[1,0,0],[0,1,0],[0.25,1,0],[0.5,1,0],[0.75,1,0],[1,1,0],[0,0.25,0],[0,0.5,0],[0,0.75,0],[1,0.25,0],[1,0.5,0],[1,0.75,0]];outlineConnect=0;fontColor=#232F3E;gradientColor=#F78E04;gradientDirection=north;fillColor=#D05C17;strokeColor=#ffffff;dashed=0;verticalLabelPosition=bottom;verticalAlign=top;align=center;html=1;fontSize=12;fontStyle=0;aspect=fixed;shape=mxgraph.aws4.resourceIcon;resIcon=mxgraph.aws4.ec2;" vertex="1" parent="GrXOFnssaMWVDJCj0Y9l-6">
          <mxGeometry x="290" y="370" width="70" height="70" as="geometry" />
        </mxCell>
        <mxCell id="GrXOFnssaMWVDJCj0Y9l-46" style="edgeStyle=orthogonalEdgeStyle;rounded=0;orthogonalLoop=1;jettySize=auto;html=1;entryX=0.03;entryY=0.853;entryDx=0;entryDy=0;entryPerimeter=0;flowAnimation=1;" edge="1" parent="GrXOFnssaMWVDJCj0Y9l-6" source="GrXOFnssaMWVDJCj0Y9l-21" target="GrXOFnssaMWVDJCj0Y9l-41">
          <mxGeometry relative="1" as="geometry" />
        </mxCell>
        <mxCell id="GrXOFnssaMWVDJCj0Y9l-21" value="" style="sketch=0;points=[[0,0,0],[0.25,0,0],[0.5,0,0],[0.75,0,0],[1,0,0],[0,1,0],[0.25,1,0],[0.5,1,0],[0.75,1,0],[1,1,0],[0,0.25,0],[0,0.5,0],[0,0.75,0],[1,0.25,0],[1,0.5,0],[1,0.75,0]];outlineConnect=0;fontColor=#232F3E;gradientColor=#F78E04;gradientDirection=north;fillColor=#D05C17;strokeColor=#ffffff;dashed=0;verticalLabelPosition=bottom;verticalAlign=top;align=center;html=1;fontSize=12;fontStyle=0;aspect=fixed;shape=mxgraph.aws4.resourceIcon;resIcon=mxgraph.aws4.ec2;" vertex="1" parent="GrXOFnssaMWVDJCj0Y9l-6">
          <mxGeometry x="400" y="370" width="70" height="70" as="geometry" />
        </mxCell>
        <mxCell id="GrXOFnssaMWVDJCj0Y9l-44" style="edgeStyle=orthogonalEdgeStyle;rounded=0;orthogonalLoop=1;jettySize=auto;html=1;entryX=0;entryY=0.25;entryDx=0;entryDy=0;flowAnimation=1;" edge="1" parent="GrXOFnssaMWVDJCj0Y9l-6" source="GrXOFnssaMWVDJCj0Y9l-22" target="GrXOFnssaMWVDJCj0Y9l-41">
          <mxGeometry relative="1" as="geometry" />
        </mxCell>
        <mxCell id="GrXOFnssaMWVDJCj0Y9l-22" value="" style="sketch=0;points=[[0,0,0],[0.25,0,0],[0.5,0,0],[0.75,0,0],[1,0,0],[0,1,0],[0.25,1,0],[0.5,1,0],[0.75,1,0],[1,1,0],[0,0.25,0],[0,0.5,0],[0,0.75,0],[1,0.25,0],[1,0.5,0],[1,0.75,0]];outlineConnect=0;fontColor=#232F3E;gradientColor=#F78E04;gradientDirection=north;fillColor=#D05C17;strokeColor=#ffffff;dashed=0;verticalLabelPosition=bottom;verticalAlign=top;align=center;html=1;fontSize=12;fontStyle=0;aspect=fixed;shape=mxgraph.aws4.resourceIcon;resIcon=mxgraph.aws4.ec2;" vertex="1" parent="GrXOFnssaMWVDJCj0Y9l-6">
          <mxGeometry x="400" y="80" width="70" height="70" as="geometry" />
        </mxCell>
        <mxCell id="GrXOFnssaMWVDJCj0Y9l-23" value="Servidor" style="text;html=1;strokeColor=none;fillColor=none;align=center;verticalAlign=middle;whiteSpace=wrap;rounded=0;" vertex="1" parent="GrXOFnssaMWVDJCj0Y9l-6">
          <mxGeometry x="275" y="150" width="100" height="30" as="geometry" />
        </mxCell>
        <mxCell id="GrXOFnssaMWVDJCj0Y9l-24" value="Servidor" style="text;html=1;strokeColor=none;fillColor=none;align=center;verticalAlign=middle;whiteSpace=wrap;rounded=0;" vertex="1" parent="GrXOFnssaMWVDJCj0Y9l-6">
          <mxGeometry x="385" y="50" width="100" height="30" as="geometry" />
        </mxCell>
        <mxCell id="GrXOFnssaMWVDJCj0Y9l-25" value="Servidor" style="text;html=1;strokeColor=none;fillColor=none;align=center;verticalAlign=middle;whiteSpace=wrap;rounded=0;" vertex="1" parent="GrXOFnssaMWVDJCj0Y9l-6">
          <mxGeometry x="275" y="340.1" width="100" height="30" as="geometry" />
        </mxCell>
        <mxCell id="GrXOFnssaMWVDJCj0Y9l-26" value="Servidor" style="text;html=1;strokeColor=none;fillColor=none;align=center;verticalAlign=middle;whiteSpace=wrap;rounded=0;" vertex="1" parent="GrXOFnssaMWVDJCj0Y9l-6">
          <mxGeometry x="385" y="440" width="100" height="30" as="geometry" />
        </mxCell>
        <mxCell id="GrXOFnssaMWVDJCj0Y9l-41" value="" style="rounded=1;arcSize=10;dashed=0;fillColor=none;gradientColor=none;strokeWidth=2;" vertex="1" parent="GrXOFnssaMWVDJCj0Y9l-6">
          <mxGeometry x="540" y="70" width="100" height="340" as="geometry" />
        </mxCell>
        <mxCell id="GrXOFnssaMWVDJCj0Y9l-28" style="edgeStyle=orthogonalEdgeStyle;rounded=0;orthogonalLoop=1;jettySize=auto;html=1;flowAnimation=1;" edge="1" parent="1" source="GrXOFnssaMWVDJCj0Y9l-7" target="GrXOFnssaMWVDJCj0Y9l-17">
          <mxGeometry relative="1" as="geometry" />
        </mxCell>
        <mxCell id="GrXOFnssaMWVDJCj0Y9l-7" value="" style="image;points=[];aspect=fixed;html=1;align=center;shadow=0;dashed=0;image=img/lib/allied_telesis/computer_and_terminals/Personal_Computer_Wireless.svg;" vertex="1" parent="1">
          <mxGeometry x="18.5" y="267.9" width="63" height="64.2" as="geometry" />
        </mxCell>
      </root>
    </mxGraphModel>
  </diagram>
</mxfile>
